grf
version=1
nRows=39
nColumns=10
inDegrees=yes
endheader
time	ground_force_1_vx	ground_force_1_vy	ground_force_1_vz	ground_force_1_px	ground_force_1_py	ground_force_1_pz	ground_moment_1_mx	ground_moment_1_my	ground_moment_1_mz
0.314667	-62.865946	400.962145	-28.038261	-0.301535	-0.000223	-0.253796	0.000113	-0.130607	-0.000241
0.315333	-62.653358	401.472819	-27.816709	-0.300543	-0.000222	-0.254073	0.000118	-0.137054	-0.000253
0.316000	-62.439112	401.949369	-27.597689	-0.301642	-0.000223	-0.253950	0.000123	-0.142537	-0.000263
0.316667	-62.222868	402.391537	-27.381691	-0.302546	-0.000223	-0.254237	0.000127	-0.147084	-0.000272
0.317333	-62.004259	402.799066	-27.169123	-0.301638	-0.000223	-0.254115	0.000130	-0.150723	-0.000278
0.318000	-61.782876	403.171720	-26.960295	-0.302341	-0.000223	-0.254180	0.000132	-0.153488	-0.000283
0.318667	-61.558270	403.509278	-26.755414	-0.303084	-0.000223	-0.254516	0.000134	-0.155420	-0.000287
0.319333	-61.329957	403.811510	-26.554576	-0.303226	-0.000225	-0.253763	0.000135	-0.156569	-0.000289
0.320000	-61.097420	404.078199	-26.357779	-0.302782	-0.000224	-0.253939	0.000135	-0.156994	-0.000290
0.320667	-60.860128	404.309167	-26.164930	-0.302348	-0.000220	-0.256068	0.000135	-0.156763	-0.000290
0.321333	-60.617550	404.504294	-25.975850	-0.302752	-0.000223	-0.254148	0.000135	-0.155944	-0.000288
0.322000	-60.369194	404.663510	-25.790281	-0.301972	-0.000223	-0.253929	0.000133	-0.154604	-0.000286
0.322667	-60.114609	404.786787	-25.607897	-0.302310	-0.000223	-0.254358	0.000132	-0.152802	-0.000282
0.323333	-59.853379	404.874123	-25.428317	-0.302177	-0.000224	-0.253665	0.000130	-0.150597	-0.000278
0.324000	-59.585104	404.925547	-25.251117	-0.301538	-0.000220	-0.255352	0.000128	-0.148045	-0.000273
0.324667	-59.309401	404.941161	-25.075840	-0.301732	-0.000219	-0.256180	0.000125	-0.145205	-0.000268
0.325333	-59.025899	404.921178	-24.901997	-0.302886	-0.000223	-0.254273	0.000123	-0.142136	-0.000262
0.326000	-58.734235	404.865905	-24.729085	-0.303027	-0.000224	-0.254182	0.000120	-0.138903	-0.000257
0.326667	-58.434048	404.775694	-24.556601	-0.302447	-0.000222	-0.254714	0.000117	-0.135582	-0.000250
0.327333	-58.124994	404.650925	-24.384061	-0.302241	-0.000221	-0.255188	0.000114	-0.132252	-0.000244
0.328000	-57.806750	404.492018	-24.211006	-0.301683	-0.000218	-0.256601	0.000111	-0.128997	-0.000238
0.328667	-57.479020	404.299439	-24.037001	-0.301001	-0.000221	-0.254818	0.000109	-0.125895	-0.000232
0.329333	-57.141542	404.073712	-23.861650	-0.301253	-0.000223	-0.253796	0.000106	-0.123019	-0.000227
0.330000	-56.794088	403.815442	-23.684589	-0.301715	-0.000221	-0.254796	0.000104	-0.120431	-0.000222
0.330667	-56.436473	403.525335	-23.505489	-0.301150	-0.000221	-0.254885	0.000102	-0.118180	-0.000218
0.331333	-56.068558	403.204174	-23.324069	-0.302050	-0.000221	-0.255024	0.000100	-0.116306	-0.000215
0.332000	-55.690244	402.852736	-23.140107	-0.301191	-0.000215	-0.257833	0.000099	-0.114841	-0.000212
0.332667	-55.301476	402.471643	-22.953464	-0.301263	-0.000218	-0.256274	0.000098	-0.113807	-0.000210
0.333333	-54.902236	402.061285	-22.764101	-0.301877	-0.000223	-0.254035	0.000098	-0.113210	-0.000209
0.334000	-54.492535	401.621915	-22.572077	-0.301968	-0.000222	-0.254386	0.000098	-0.113044	-0.000209
0.334667	-54.072430	401.153796	-22.377529	-0.301954	-0.000220	-0.255530	0.000098	-0.113295	-0.000209
0.335333	-53.642022	400.657232	-22.180662	-0.302343	-0.000221	-0.255101	0.000098	-0.113943	-0.000210
0.336000	-53.201462	400.132545	-21.981746	-0.301993	-0.000221	-0.255249	0.000099	-0.114963	-0.000212
0.336667	-52.750942	399.580066	-21.781099	-0.300776	-0.000221	-0.254336	0.000100	-0.116328	-0.000215
0.337333	-52.290691	399.000132	-21.579055	-0.301426	-0.000222	-0.254170	0.000102	-0.118006	-0.000218
0.338000	-51.820987	398.393108	-21.375953	-0.301595	-0.000222	-0.254435	0.000103	-0.119960	-0.000222
0.338667	-51.342154	397.759407	-21.172145	-0.301619	-0.000224	-0.253459	0.000105	-0.122150	-0.000226
0.339333	-50.854560	397.099498	-20.968006	-0.301787	-0.000225	-0.252781	0.000107	-0.124534	-0.000230
0.340000	-50.358604	396.413894	-20.763931	-0.301775	-0.000223	-0.253822	0.000110	-0.127069	-0.000235
